<?xml version="1.0" encoding="utf-8"?>
<!-- Generator: Adobe Illustrator 16.0.0, SVG Export Plug-In . SVG Version: 6.00 Build 0)  -->
<!DOCTYPE svg PUBLIC "-//W3C//DTD SVG 1.1//EN" "http://www.w3.org/Graphics/SVG/1.1/DTD/svg11.dtd">
<svg version="1.1" xmlns="http://www.w3.org/2000/svg" xmlns:xlink="http://www.w3.org/1999/xlink" x="0px" y="0px"
	 width="53.421px" height="43.812px" viewBox="0 0 53.421 43.812" enable-background="new 0 0 53.421 43.812" xml:space="preserve">
<g id="Guides">
</g>
<g id="Wires">
</g>
<g id="Text">
	<rect fill="#1ABC9C" width="53.421" height="43.812"/>
	<g opacity="0.7">
		<path fill="#FFFFFF" d="M35.737,15.039c-0.285-0.284-2.891-2.891-3.191-3.19c-0.301-0.302-0.702-0.335-1.012-0.224
			c-0.277,0.099-7.582,2.355-7.582,2.355l-7.398,7.41c-1.48,1.473-1.633,3.72-0.34,5.02l5.021,4.946
			c1.292,1.301,3.435,1.158,4.915-0.314l7.338-7.33c0,0,2.35-7.392,2.467-7.731S36.021,15.323,35.737,15.039z M30.655,18.733
			c-1.045,0-1.891-0.847-1.891-1.891c0-1.043,0.846-1.891,1.891-1.891c1.043,0,1.89,0.847,1.89,1.891S31.698,18.733,30.655,18.733z"
			/>
	</g>
</g>
<g id="FB_event" display="none">
</g>
</svg>
